<?xml version="1.0" encoding="UTF-8" standalone="no"?>
<!-- Svg Vector Icons : http://www.onlinewebfonts.com/icon -->

<svg
   xmlns:dc="http://purl.org/dc/elements/1.1/"
   xmlns:cc="http://creativecommons.org/ns#"
   xmlns:rdf="http://www.w3.org/1999/02/22-rdf-syntax-ns#"
   xmlns:svg="http://www.w3.org/2000/svg"
   xmlns="http://www.w3.org/2000/svg"
   xmlns:sodipodi="http://sodipodi.sourceforge.net/DTD/sodipodi-0.dtd"
   xmlns:inkscape="http://www.inkscape.org/namespaces/inkscape"
   version="1.1"
   x="0px"
   y="0px"
   viewBox="0 0 1000 1000"
   enable-background="new 0 0 1000 1000"
   xml:space="preserve"
   id="svg20"
   sodipodi:docname="receipt_logo.svg"
   inkscape:version="0.92.3 (unknown)"><defs
   id="defs24" /><sodipodi:namedview
   pagecolor="#ffffff"
   bordercolor="#666666"
   borderopacity="1"
   objecttolerance="10"
   gridtolerance="10"
   guidetolerance="10"
   inkscape:pageopacity="0"
   inkscape:pageshadow="2"
   inkscape:window-width="951"
   inkscape:window-height="657"
   id="namedview22"
   showgrid="false"
   inkscape:zoom="0.236"
   inkscape:cx="326.27119"
   inkscape:cy="500"
   inkscape:window-x="233"
   inkscape:window-y="117"
   inkscape:window-maximized="0"
   inkscape:current-layer="svg20" />
<metadata
   id="metadata2"> Svg Vector Icons : http://www.onlinewebfonts.com/icon <rdf:RDF><cc:Work
     rdf:about=""><dc:format>image/svg+xml</dc:format><dc:type
       rdf:resource="http://purl.org/dc/dcmitype/StillImage" /></cc:Work></rdf:RDF></metadata>
<path
   d="m 143.27,11.41 c -21.19,5.18 -40.5,21.19 -50.62,41.44 l -5.89,11.77 -0.7,447.15 -0.47,447.15 4.94,10.36 c 5.18,10.36 17.9,19.54 27.78,19.54 2.83,0 18.37,-14.36 40.97,-37.67 l 36.26,-37.67 39.32,38.14 39.32,37.91 37.67,-37.44 37.44,-37.44 37.67,37.67 37.67,37.67 37.67,-37.67 37.67,-37.67 37.67,37.67 37.67,37.67 37.67,-37.67 37.67,-37.67 37.67,37.67 37.67,37.67 37.67,-37.67 37.67,-37.67 37.2,37.2 c 26.14,26.14 38.62,36.97 42.38,36.97 10.6,0 23.31,-8.71 28.49,-19.54 l 4.94,-10.36 -0.4,-447.15 -0.71,-447.14 -5.89,-11.77 c -7.3,-15.07 -21.43,-29.2 -36.5,-36.5 L 859.07,10.47 504.7,10 c -194.95,0 -357.42,0.47 -361.43,1.41 z m 716.05,41.68 c 3.53,2.59 8.71,7.77 11.3,11.3 l 4.94,6.36 0.71,432.55 0.47,432.55 -37.67,-37.67 -37.67,-37.68 -37.67,37.68 -37.67,37.67 -37.67,-37.67 -37.69,-37.69 -37.67,37.68 -37.67,37.67 -37.67,-37.67 -37.69,-37.68 -37.67,37.68 -37.67,37.67 -37.67,-37.67 -37.69,-37.68 -37.44,37.44 -37.44,37.44 -11.54,-9.65 c -6.12,-5.18 -19.31,-17.66 -28.96,-27.55 -9.65,-9.89 -22.84,-22.37 -28.96,-27.55 l -11.54,-9.65 -34.85,36.26 -35.08,36.26 V 505.65 c -0.24,-297.62 0.47,-429.72 2.35,-434.43 3.3,-8.71 11.07,-17.19 19.78,-20.96 5.89,-2.59 68.99,-3.06 357.2,-2.59 349.43,0.48 350.14,0.48 356.5,5.42 z"
   id="path4"
   style="stroke:none;stroke-width:0.1;stroke-opacity:1;fill:#ffffff;fill-opacity:1"
   inkscape:connector-curvature="0" /><path
   d="m 355.19,278.9 c -3.3,3.06 -5.89,8.24 -5.89,11.3 0,3.3 -0.71,8.95 -1.41,12.95 -1.41,6.59 -2.12,7.06 -15.31,8.48 -49.68,5.65 -79.82,34.14 -79.82,75.35 0,28.96 16.95,50.15 55.81,68.99 20.25,9.89 21.66,10.83 20.72,16.72 -0.71,3.53 -3.3,26.37 -6.12,51.1 -2.59,24.49 -5.18,44.98 -5.65,45.45 -0.47,0.47 -6.59,-1.65 -13.42,-4.71 -16.72,-7.77 -27.55,-19.07 -29.43,-31.32 -1.66,-10.84 -11.78,-22.38 -19.55,-22.38 -2.83,0 -8.24,3.29 -12.24,7.06 -6.36,6.59 -7.06,8.48 -6.12,18.6 2.82,29.2 30.61,57.69 67.34,68.52 l 9.89,3.06 -1.41,14.84 c -1.41,13.65 -1.18,15.07 4.47,20.72 8.01,8.01 18.6,8.01 26.37,0.24 3.3,-3.06 5.89,-8.24 5.89,-11.3 0,-3.3 0.71,-9.18 1.41,-13.18 1.18,-5.89 2.59,-7.3 7.77,-7.3 13.19,-0.24 39.79,-7.3 56.04,-15.3 32.26,-16.01 50.15,-43.8 47.09,-73.46 -3.3,-31.32 -24.96,-54.16 -69.93,-73.7 -9.65,-4.24 -18.37,-8.24 -19.31,-9.18 -0.94,-0.71 0.24,-19.54 2.83,-41.44 2.59,-22.13 4.71,-41.44 4.71,-43.09 0,-2.12 1.88,-1.88 7.77,0.94 10.6,5.41 20.49,15.07 20.49,20.25 0,6.36 6.12,17.66 10.6,19.31 14.6,5.65 27.08,-3.3 27.08,-19.31 0,-21.9 -18.13,-44.03 -46.15,-56.28 l -15.07,-6.36 1.41,-14.6 c 1.41,-13.66 1.18,-15.07 -4.47,-20.72 -8.02,-8.02 -18.62,-8.02 -26.39,-0.25 z m -12.95,72.29 c 0,5.42 -7.77,73.7 -8.48,74.41 -1.65,2.12 -30.14,-15.3 -36.26,-22.37 -17.19,-19.31 -3.53,-44.97 27.55,-52.27 12.95,-3.07 17.19,-3.07 17.19,0.23 z m 44.03,137.51 c 47.09,22.6 50.86,56.04 8.71,75.35 -11.54,5.41 -36.03,11.3 -38.14,9.42 -0.47,-0.71 1.18,-20.96 4,-45.45 2.83,-24.25 4.94,-44.97 4.94,-46.15 0.01,-2.83 2.12,-2.12 20.49,6.83 z"
   id="path6"
   style="stroke:none;stroke-width:0.1;stroke-opacity:1;fill:#ffffff;fill-opacity:1"
   inkscape:connector-curvature="0" /><path
   d="m 543.56,278.9 c -3.77,3.53 -5.89,8.48 -5.89,12.95 0,4.47 2.12,9.42 5.89,12.95 l 5.65,5.89 H 650.7 752.18 l 5.65,-5.89 c 3.77,-3.53 5.89,-8.48 5.89,-12.95 0,-4.47 -2.12,-9.42 -5.89,-12.95 l -5.65,-5.89 H 650.7 549.21 Z"
   id="path8"
   style="stroke:none;stroke-width:0.1;stroke-opacity:1;fill:#ffffff;fill-opacity:1"
   inkscape:connector-curvature="0" /><path
   d="m 543.56,391.92 c -3.77,3.53 -5.89,8.48 -5.89,12.95 0,4.47 2.12,9.42 5.89,12.95 l 5.65,5.89 H 650.7 752.18 l 5.65,-5.89 c 3.77,-3.53 5.89,-8.48 5.89,-12.95 0,-4.47 -2.12,-9.42 -5.89,-12.95 l -5.65,-5.89 H 650.7 549.21 Z"
   id="path10"
   style="stroke:none;stroke-width:0.1;stroke-opacity:1;fill:#ffffff;fill-opacity:1"
   inkscape:connector-curvature="0" /><path
   d="m 543.56,504.95 c -3.77,3.53 -5.89,8.48 -5.89,12.95 0,4.47 2.12,9.42 5.89,12.95 l 5.65,5.89 H 650.7 752.18 l 5.65,-5.89 c 3.77,-3.53 5.89,-8.48 5.89,-12.95 0,-4.47 -2.12,-9.42 -5.89,-12.95 l -5.65,-5.89 H 650.7 549.21 Z"
   id="path12"
   style="stroke:none;stroke-width:0.1;stroke-opacity:1;fill:#ffffff;fill-opacity:1"
   inkscape:connector-curvature="0" /><path
   d="m 543.56,617.97 c -3.77,3.53 -5.89,8.48 -5.89,12.95 0,4.47 2.12,9.42 5.89,12.95 l 5.65,5.88 H 650.7 752.18 l 5.65,-5.88 c 3.77,-3.53 5.89,-8.48 5.89,-12.95 0,-4.47 -2.12,-9.42 -5.89,-12.95 l -5.65,-5.89 H 650.7 549.21 Z"
   id="path14"
   style="stroke:none;stroke-width:0.1;stroke-opacity:1;fill:#ffffff;fill-opacity:1"
   inkscape:connector-curvature="0" />
</svg>